<?xml version="1.0" encoding="UTF-8"?>
<svg xmlns="http://www.w3.org/2000/svg" viewBox="0 0 100 100">
  <defs>
    <style>
      .cls-1 {
        fill: #fff;
      }

      .cls-1, .cls-2, .cls-3 {
        stroke: #000;
        stroke-miterlimit: 10;
        stroke-width: 2px;
      }

      .cls-2 {
        fill: #318fdb;
      }

      .cls-3 {
        fill: #b2dfed;
      }
    </style>
  </defs>
  <g id="small_lines" data-name="small lines">
    <path class="cls-1" d="m26.35,85.07v-5.43m39.46,5.43v-5.43m-35.51,5.43v-5.43m3.95,5.43v-5.43m3.95,5.43v-5.43m3.95,5.43v-5.43m3.95,5.43v-5.43m3.95,5.43v-5.43m3.95,5.43v-5.43m3.95,5.43v-5.43m3.95,5.43v-5.43m10.67-6.73v-5.43m-3.04,0v5.43"/>
  </g>
  <g id="towel_body" data-name="towel body">
    <path class="cls-2" d="m33.28,18.5h39.51c.59,0,1.05.37,1,.79l-6.46,59.67c-.04.38-.48.68-1,.68H26.19c-.59,0-1.05-.37-1-.8l7.09-59.67c.05-.38.48-.67,1-.67Zm35.32,48.77h4.27c.56,0,1.01-.33,1.01-.74l-.09-47.24-5.19,47.98Z"/>
  </g>
  <g id="design_line" data-name="design line">
    <path class="cls-3" d="m28.08,53.63s7.34-4.81,11.29,2.39c2.27,4.15,9.08,1.53,11.84-2.69,2.19-3.36,8.51-3.24,11.59,1.33.8,1.19,1.97,1.73,3.37,1.9,1.28.15,2.89-.26,3.81-1.89l-.61,6c-.92,1.62-2.54,2.04-3.81,1.89-1.4-.17-2.57-.71-3.37-1.9-3.08-4.56-9.39-4.68-11.59-1.33-2.76,4.22-9.56,6.84-11.84,2.69-3.95-7.2-11.29-2.39-11.29-2.39l.61-6Z"/>
  </g>
</svg>