<?xml version="1.0" encoding="UTF-8"?>
<svg id="Layer_1" data-name="Layer 1" xmlns="http://www.w3.org/2000/svg" viewBox="0 0 100 100">
  <defs>
    <style>
      .cls-1 {
        fill: #fff;
      }

      .cls-1, .cls-2 {
        stroke: #000;
        stroke-miterlimit: 10;
        stroke-width: 2px;
      }

      .cls-2 {
        fill: none;
      }
    </style>
  </defs>
  <path class="cls-2" d="m31.34,52.94c0-11.31,9.17-21.31,20.49-21.31s20.49,10,20.49,21.31"/>
  <rect class="cls-2" x="31.34" y="52.12" width="40.97" height="5.2" rx=".82" ry=".82"/>
  <path class="cls-2" d="m45.43,75.72c25.12,5.21,38.72-2.1,42.2-4.38.5-.32.49-1.05,0-1.37-2.49-1.6-10.68-4.68-31.87,2.95-22.87,8.23-37.13.37-40.77-2.07-.47-.32-.48-1-.02-1.34l16.39-12.19"/>
  <line class="cls-2" x1="72.32" y1="57.32" x2="87.62" y2="69.97"/>
  <line class="cls-1" x1="68.42" y1="57.45" x2="68.42" y2="51.99"/>
  <line class="cls-1" x1="34.9" y1="57.45" x2="34.9" y2="51.99"/>
  <line class="cls-1" x1="38.62" y1="57.45" x2="38.62" y2="51.99"/>
  <line class="cls-1" x1="42.35" y1="57.45" x2="42.35" y2="51.99"/>
  <line class="cls-1" x1="46.07" y1="57.45" x2="46.07" y2="51.99"/>
  <line class="cls-1" x1="49.8" y1="57.45" x2="49.8" y2="51.99"/>
  <line class="cls-1" x1="53.52" y1="57.45" x2="53.52" y2="51.99"/>
  <line class="cls-1" x1="57.25" y1="57.45" x2="57.25" y2="51.99"/>
  <line class="cls-1" x1="60.97" y1="57.45" x2="60.97" y2="51.99"/>
  <line class="cls-1" x1="64.7" y1="57.45" x2="64.7" y2="51.99"/>
</svg>