<?xml version="1.0" encoding="UTF-8"?>
<svg id="Layer_1" data-name="Layer 1" xmlns="http://www.w3.org/2000/svg" viewBox="0 0 100 100">
  <defs>
    <style>
      .cls-1 {
        fill: none;
        stroke: #000;
        stroke-miterlimit: 10;
        stroke-width: 2px;
      }
    </style>
  </defs>
  <path class="cls-1" d="m45.19,82.71l4.14-12.64c.23-.7,1.22-.73,1.48-.03l4.77,12.71c.13.27.41.45.71.45h28.1c.47,0,.84-.42.78-.89l-10.74-57.88c-.05-.39-.38-.68-.78-.68H27.22c-.39,0-.72.29-.78.68l-10.54,57.88c-.06.47.3.89.78.89h27.78c.32,0,.6-.19.73-.49Z"/>
  <line class="cls-1" x1="25.89" y1="27.49" x2="75.05" y2="27.83"/>
  <path class="cls-1" d="m36.46,27.66s-.08,13.96-12.76,11.85"/>
  <path class="cls-1" d="m64.39,27.49s.08,13.96,12.76,11.85"/>
  <line class="cls-1" x1="59.57" y1="23.75" x2="59.57" y2="27.49"/>
  <line class="cls-1" x1="62.03" y1="23.75" x2="62.03" y2="27.49"/>
  <line class="cls-1" x1="38.81" y1="23.75" x2="38.81" y2="27.49"/>
  <line class="cls-1" x1="41.28" y1="23.75" x2="41.28" y2="27.49"/>
  <circle cx="50.53" cy="25.68" r=".88"/>
  <path class="cls-1" d="m54.34,39.61h-3.18c-.34,0-.62-.28-.62-.62v-11.56"/>
  <line class="cls-1" x1="16.29" y1="80.74" x2="45.94" y2="80.94"/>
  <line class="cls-1" x1="54.81" y1="80.84" x2="84.77" y2="81.04"/>
</svg>