<?xml version="1.0" encoding="UTF-8"?>
<svg id="Layer_1" data-name="Layer 1" xmlns="http://www.w3.org/2000/svg" viewBox="0 0 100 100">
  <defs>
    <style>
      .cls-1 {
        fill: #fff;
      }

      .cls-1, .cls-2 {
        stroke: #000;
        stroke-miterlimit: 10;
        stroke-width: 2px;
      }

      .cls-2 {
        fill: none;
      }
    </style>
  </defs>
  <path class="cls-2" d="m27.63,87.8V22.78c0-.45.36-.81.81-.81h37.42c.44,0,.8.34.81.78.14,5.16.72,34.41-4.54,42.11-6.41,9.37-28.03,20.92-33.32,23.66-.54.28-1.18-.11-1.18-.72Z"/>
  <path class="cls-2" d="m66.69,23.44c.14,5.16,2.84,37.56-3.14,48.14-5.59,9.88-29.03,14.01-34.32,16.74"/>
  <path class="cls-2" d="m66.81,22.11c-.19.04-.34-.16-.26-.33.41-1,1.58-3.5,2.77-2.96,1.4.64-.07,2.82-2.51,3.29Z"/>
  <path class="cls-2" d="m67.09,23.14c-.18-.08-.18-.33,0-.4,1.41-.53,5.43-1.89,5.59-.04.18,2.09-3.22,1.45-5.59.45Z"/>
  <line class="cls-1" x1="30.69" y1="27.47" x2="30.69" y2="22.11"/>
  <line class="cls-1" x1="33.81" y1="27.47" x2="33.81" y2="22.11"/>
  <line class="cls-1" x1="36.93" y1="27.47" x2="36.93" y2="22.11"/>
  <line class="cls-1" x1="40.05" y1="27.47" x2="40.05" y2="22.11"/>
  <line class="cls-1" x1="43.17" y1="27.47" x2="43.17" y2="22.11"/>
  <line class="cls-1" x1="46.29" y1="27.47" x2="46.29" y2="22.11"/>
  <line class="cls-1" x1="49.41" y1="27.47" x2="49.41" y2="22.11"/>
  <line class="cls-1" x1="52.53" y1="27.47" x2="52.53" y2="22.11"/>
  <line class="cls-1" x1="55.65" y1="27.47" x2="55.65" y2="22.11"/>
  <line class="cls-1" x1="58.76" y1="27.47" x2="58.76" y2="22.11"/>
</svg>