<?xml version="1.0" encoding="UTF-8"?>
<svg id="Layer_1" data-name="Layer 1" xmlns="http://www.w3.org/2000/svg" viewBox="0 0 100 100">
  <defs>
    <style>
      .cls-1 {
        fill: #fff;
      }

      .cls-1, .cls-2 {
        stroke: #000;
        stroke-miterlimit: 10;
        stroke-width: 2px;
      }

      .cls-2 {
        fill: none;
      }
    </style>
  </defs>
  <path class="cls-2" d="m62.53,21.74h11.9c.66,0,1.19.47,1.19,1.05v61.14c0,.58-.53,1.05-1.19,1.05H25.39c-.66,0-1.19-.47-1.19-1.05V22.79c0-.58.53-1.05,1.19-1.05h10.5s5.48-2.41,13.16-2.49c4.04-.04,8.69.65,13.48,2.49Z"/>
  <path class="cls-2" d="m62.18,21.94l-3.2,3.22c-5.1,5.13-13.31,5.39-18.73.61l-4.34-3.83"/>
  <path class="cls-2" d="m44.13,51.57h-9.09c-.64,0-1.17-.52-1.17-1.17v-12.08c0-.64.52-1.17,1.17-1.17h9.09c.64,0,1.17.52,1.17,1.17v12.08c0,.64-.52,1.17-1.17,1.17Z"/>
  <line class="cls-1" x1="33.88" y1="39.97" x2="45.29" y2="39.91"/>
  <path class="cls-2" d="m75.62,22.73l6.08,14.41c.2.48.06,1.04-.34,1.36l-5.74,4.62"/>
  <line class="cls-1" x1="75.35" y1="40.27" x2="81.02" y2="35.64"/>
  <path class="cls-2" d="m24.2,22.73l-6.4,14.41c-.21.48-.07,1.04.36,1.36l6.04,4.62"/>
  <line class="cls-1" x1="24.48" y1="40.27" x2="18.51" y2="35.64"/>
</svg>