<?xml version="1.0" encoding="UTF-8"?>
<svg id="Layer_1" data-name="Layer 1" xmlns="http://www.w3.org/2000/svg" viewBox="0 0 100 100">
  <defs>
    <style>
      .cls-1 {
        fill: #fff;
      }

      .cls-1, .cls-2 {
        stroke: #000;
        stroke-miterlimit: 10;
        stroke-width: 2px;
      }

      .cls-2 {
        fill: none;
      }
    </style>
  </defs>
  <path class="cls-2" d="m53.1,38.76c-.71-3.11-.93-6.32-.56-9.49.59-5.07,3.53-11.64,9.14-11.62,12.63.04,14.2,12.76,13.28,22.51-.04.45-.08.9-.12,1.36-.82,9.41-.97,19.7-1.2,23.04-.42,6.29-3.18,14.29-12.13,12.32-9.74-2.15-4.08-17.62-5.33-26.1-.33-2.27-1.87-6.48-2.7-10.31-.13-.6-.26-1.17-.38-1.7Z"/>
  <path class="cls-1" d="m59.58,24.25v4.47s13.13,7.44,15.11,14.45"/>
  <path class="cls-1" d="m59.58,28.72s-5.83,3.68-6.64,9.35"/>
  <path class="cls-2" d="m47.14,49.43c.72-3.11.94-6.32.56-9.49-.6-5.07-3.57-11.64-9.23-11.62-12.76.04-14.36,12.76-13.42,22.51.04.45.08.9.12,1.36.82,9.41.98,19.7,1.21,23.04.43,6.29,3.21,14.29,12.26,12.32,9.84-2.15,4.13-17.62,5.39-26.1.34-2.27,1.89-6.48,2.73-10.31.13-.6.26-1.17.38-1.7Z"/>
  <path class="cls-1" d="m40.58,34.92v4.47s-13.27,7.44-15.27,14.45"/>
  <path class="cls-1" d="m40.58,39.39s5.89,3.68,6.71,9.35"/>
</svg>