<?xml version="1.0" encoding="UTF-8"?>
<svg id="Layer_1" data-name="Layer 1" xmlns="http://www.w3.org/2000/svg" viewBox="0 0 100 100">
  <defs>
    <style>
      .cls-1 {
        fill: none;
        stroke: #000;
        stroke-miterlimit: 10;
        stroke-width: 2px;
      }
    </style>
  </defs>
  <path class="cls-1" d="m36.71,17.24c.91-.26,1.87.12,2.36.92,2.68,4.44,12.02,17.14,22.81.01.51-.81,1.5-1.18,2.41-.88h0c1,.32,1.6,1.33,1.41,2.37-.5,2.77-1.23,8.08-.07,11.17,1.53,4.07,2.1,6.32-1.56,15.98-.56,1.48-.81,3.07-.69,4.65.16,2.22.68,5.55,2.25,9.3,2.02,4.81,2.08,9.89,1.96,12.38-.04.89-.65,1.64-1.5,1.89-3.13.9-10.42,2.95-12.64,11.91-.22.88-1,1.99-1.8,2.44-.36.2-.78.28-1.28.28"/>
  <path class="cls-1" d="m64.15,17.24c-.91-.26-1.89.12-2.38.92-2.7,4.44-12.12,17.14-22.99.01-.51-.81-1.51-1.18-2.43-.88h0c-1.01.32-1.62,1.33-1.43,2.37.51,2.77,1.24,8.08.07,11.17-1.54,4.07-2.11,6.32,1.57,15.98.57,1.48.81,3.07.7,4.65-.16,2.22-.69,5.55-2.27,9.3-2.03,4.81-2.1,9.89-1.98,12.38.04.89.65,1.64,1.51,1.89,3.16.9,10.51,2.95,12.75,11.91.22.88,1.01,1.99,1.81,2.44.36.2.77.28,1.28.28"/>
  <path class="cls-1" d="m51.95,26.7v11.74c0,.31-.21.57-.46.57h-1.51c-.25,0-.46-.25-.46-.57v-11.74"/>
</svg>