<?xml version="1.0" encoding="UTF-8"?>
<svg id="Layer_1" data-name="Layer 1" xmlns="http://www.w3.org/2000/svg" viewBox="0 0 100 100">
  <defs>
    <style>
      .cls-1 {
        fill: #fff;
      }

      .cls-1, .cls-2 {
        stroke: #000;
        stroke-miterlimit: 10;
        stroke-width: 2px;
      }

      .cls-2 {
        fill: none;
      }
    </style>
  </defs>
  <g>
    <path class="cls-2" d="m33.32,18.5h39.51c.59,0,1.05.37,1,.79l-6.46,59.67c-.04.38-.48.68-1,.68H26.23c-.59,0-1.05-.37-1-.8l7.09-59.67c.05-.38.48-.67,1-.67Z"/>
    <path class="cls-2" d="m73.83,19.29l.09,47.24c0,.41-.45.74-1.01.74h-4.27l5.19-47.98Z"/>
    <line class="cls-1" x1="26.4" y1="85.07" x2="26.4" y2="79.64"/>
    <line class="cls-1" x1="65.86" y1="85.07" x2="65.86" y2="79.64"/>
    <line class="cls-1" x1="30.35" y1="85.07" x2="30.35" y2="79.64"/>
    <line class="cls-1" x1="34.29" y1="85.07" x2="34.29" y2="79.64"/>
    <line class="cls-1" x1="38.24" y1="85.07" x2="38.24" y2="79.64"/>
    <line class="cls-1" x1="42.19" y1="85.07" x2="42.19" y2="79.64"/>
    <line class="cls-1" x1="46.13" y1="85.07" x2="46.13" y2="79.64"/>
    <line class="cls-1" x1="50.08" y1="85.07" x2="50.08" y2="79.64"/>
    <line class="cls-1" x1="54.02" y1="85.07" x2="54.02" y2="79.64"/>
    <line class="cls-1" x1="57.97" y1="85.07" x2="57.97" y2="79.64"/>
    <line class="cls-1" x1="61.92" y1="85.07" x2="61.92" y2="79.64"/>
    <line class="cls-1" x1="72.59" y1="72.9" x2="72.59" y2="67.47"/>
    <line class="cls-1" x1="69.55" y1="67.47" x2="69.55" y2="72.9"/>
  </g>
  <path class="cls-2" d="m27.47,59.63s7.34-4.81,11.29,2.39c2.27,4.15,9.08,1.53,11.84-2.69,2.19-3.36,8.51-3.24,11.59,1.33.8,1.19,1.97,1.73,3.37,1.9,1.28.15,2.89-.26,3.81-1.89"/>
  <path class="cls-2" d="m28.08,53.63s7.34-4.81,11.29,2.39c2.27,4.15,9.08,1.53,11.84-2.69,2.19-3.36,8.51-3.24,11.59,1.33.8,1.19,1.97,1.73,3.37,1.9,1.28.15,2.89-.26,3.81-1.89"/>
</svg>